STARTFONT 2.1
FONT -Adobe-Utopia-Bold-R-Normal--14-100-100-100-P-78-ISO8859-2
SIZE 10 100 100
FONTBOUNDINGBOX 20 17 -2 -4
STARTPROPERTIES 29
FOUNDRY "Adobe"
FAMILY_NAME "Utopia"
WEIGHT_NAME "Bold"
SLANT "R"
SETWIDTH_NAME "Normal"
ADD_STYLE_NAME ""
PIXEL_SIZE 14
POINT_SIZE 100
RESOLUTION_X 100
RESOLUTION_Y 100
SPACING "P"
AVERAGE_WIDTH 78
CHARSET_REGISTRY "ISO8859"
CHARSET_ENCODING "2"
CAP_HEIGHT 10
X_HEIGHT 7
RELATIVE_SETWIDTH 50
RELATIVE_WEIGHT 70
WEIGHT 218
FACE_NAME "Utopia Bold"
COPYRIGHT "Copyright (c) 1989, 1991 Adobe Systems Incorporated.  All Rights Reserved., Copyright 1996 Cub Soft"
NOTICE "Utopia is a registered trademark of Adobe Systems Incorporated."
DESTINATION 0
FONT_ASCENT 13
FONT_DESCENT 4
DEFAULT_CHAR 32
_ADOBE_PSFONT "Utopia-Bold"
_ADOBE_XFONT "-Adobe-Utopia-Bold-R-Normal--14-100-100-100-P-78-ISO8859-2"
_DEC_DEVICE_FONTNAMES "PS=Utopia-Bold"
ENDPROPERTIES
CHARS 191
STARTCHAR space
ENCODING 32
SWIDTH 210 0
DWIDTH 3 0
BBX 0 0 0 0
BITMAP
ENDCHAR
STARTCHAR exclam
ENCODING 33
SWIDTH 278 0
DWIDTH 4 0
BBX 3 10 0 0
BITMAP
e0
e0
e0
40
40
40
00
40
e0
c0
ENDCHAR
STARTCHAR quotedbl
ENCODING 34
SWIDTH 473 0
DWIDTH 7 0
BBX 5 4 1 6
BITMAP
d8
d8
50
50
ENDCHAR
STARTCHAR numbersign
ENCODING 35
SWIDTH 560 0
DWIDTH 8 0
BBX 7 10 0 0
BITMAP
14
14
24
7e
28
28
fc
48
50
d0
ENDCHAR
STARTCHAR dollar
ENCODING 36
SWIDTH 560 0
DWIDTH 8 0
BBX 7 11 0 -1
BITMAP
10
38
d6
d0
f0
3c
1e
d6
d4
78
10
ENDCHAR
STARTCHAR percent
ENCODING 37
SWIDTH 887 0
DWIDTH 12 0
BBX 12 11 0 -1
BITMAP
00c0
7f80
cc80
cd00
c900
7260
04b0
05b0
09b0
10e0
1000
ENDCHAR
STARTCHAR ampersand
ENCODING 38
SWIDTH 748 0
DWIDTH 10 0
BBX 9 9 1 0
BITMAP
3800
6c00
6980
6980
3980
dd00
ce00
e780
7980
ENDCHAR
STARTCHAR apostrophe
ENCODING 39
SWIDTH 252 0
DWIDTH 3 0
BBX 2 4 1 6
BITMAP
c0
c0
40
80
ENDCHAR
STARTCHAR parenleft
ENCODING 40
SWIDTH 365 0
DWIDTH 5 0
BBX 3 12 2 -2
BITMAP
20
40
c0
80
80
80
80
80
80
c0
40
20
ENDCHAR
STARTCHAR parenright
ENCODING 41
SWIDTH 365 0
DWIDTH 5 0
BBX 3 12 0 -2
BITMAP
80
40
60
20
20
20
20
20
20
60
40
80
ENDCHAR
STARTCHAR asterisk
ENCODING 42
SWIDTH 442 0
DWIDTH 6 0
BBX 5 5 1 5
BITMAP
20
f8
20
f8
20
ENDCHAR
STARTCHAR plus
ENCODING 43
SWIDTH 600 0
DWIDTH 8 0
BBX 7 7 1 0
BITMAP
10
10
10
fe
10
10
10
ENDCHAR
STARTCHAR comma
ENCODING 44
SWIDTH 280 0
DWIDTH 4 0
BBX 3 5 0 -2
BITMAP
40
60
60
40
80
ENDCHAR
STARTCHAR minus
ENCODING 45
SWIDTH 600 0
DWIDTH 8 0
BBX 7 1 1 3
BITMAP
fe
ENDCHAR
STARTCHAR period
ENCODING 46
SWIDTH 280 0
DWIDTH 4 0
BBX 3 3 0 0
BITMAP
40
e0
40
ENDCHAR
STARTCHAR slash
ENCODING 47
SWIDTH 378 0
DWIDTH 5 0
BBX 4 10 1 0
BITMAP
10
30
20
20
20
40
40
40
c0
80
ENDCHAR
STARTCHAR zero
ENCODING 48
SWIDTH 560 0
DWIDTH 8 0
BBX 6 9 1 0
BITMAP
30
48
cc
cc
cc
cc
cc
48
30
ENDCHAR
STARTCHAR one
ENCODING 49
SWIDTH 560 0
DWIDTH 8 0
BBX 4 9 2 0
BITMAP
20
e0
60
60
60
60
60
60
f0
ENDCHAR
STARTCHAR two
ENCODING 50
SWIDTH 560 0
DWIDTH 8 0
BBX 8 9 0 0
BITMAP
3c
66
66
06
0c
10
61
fe
fe
ENDCHAR
STARTCHAR three
ENCODING 51
SWIDTH 560 0
DWIDTH 8 0
BBX 7 9 0 0
BITMAP
3c
66
66
06
38
06
46
e6
3c
ENDCHAR
STARTCHAR four
ENCODING 52
SWIDTH 560 0
DWIDTH 8 0
BBX 7 9 0 0
BITMAP
0c
1c
1c
2c
2c
4c
fe
0c
1e
ENDCHAR
STARTCHAR five
ENCODING 53
SWIDTH 560 0
DWIDTH 8 0
BBX 7 9 0 0
BITMAP
7e
7c
40
7c
46
06
46
e4
38
ENDCHAR
STARTCHAR six
ENCODING 54
SWIDTH 560 0
DWIDTH 8 0
BBX 7 9 0 0
BITMAP
3c
66
c2
f8
c6
c6
c6
64
38
ENDCHAR
STARTCHAR seven
ENCODING 55
SWIDTH 560 0
DWIDTH 8 0
BBX 7 9 0 0
BITMAP
7e
7e
84
08
08
10
30
30
30
ENDCHAR
STARTCHAR eight
ENCODING 56
SWIDTH 560 0
DWIDTH 8 0
BBX 7 9 0 0
BITMAP
3c
66
66
66
3e
c6
c6
44
38
ENDCHAR
STARTCHAR nine
ENCODING 57
SWIDTH 560 0
DWIDTH 8 0
BBX 6 9 1 0
BITMAP
70
c8
cc
cc
7c
0c
cc
c8
70
ENDCHAR
STARTCHAR colon
ENCODING 58
SWIDTH 280 0
DWIDTH 4 0
BBX 3 7 0 0
BITMAP
e0
e0
40
00
40
e0
c0
ENDCHAR
STARTCHAR semicolon
ENCODING 59
SWIDTH 280 0
DWIDTH 4 0
BBX 3 10 0 -3
BITMAP
60
e0
40
00
00
60
60
40
40
80
ENDCHAR
STARTCHAR less
ENCODING 60
SWIDTH 600 0
DWIDTH 8 0
BBX 7 7 1 0
BITMAP
02
0e
38
e0
e0
38
06
ENDCHAR
STARTCHAR equal
ENCODING 61
SWIDTH 600 0
DWIDTH 8 0
BBX 7 4 1 1
BITMAP
fe
00
00
fe
ENDCHAR
STARTCHAR greater
ENCODING 62
SWIDTH 600 0
DWIDTH 8 0
BBX 7 7 1 0
BITMAP
80
e0
38
0e
0e
38
c0
ENDCHAR
STARTCHAR question
ENCODING 63
SWIDTH 456 0
DWIDTH 6 0
BBX 5 10 1 0
BITMAP
70
d8
98
30
40
c0
f0
00
60
60
ENDCHAR
STARTCHAR at
ENCODING 64
SWIDTH 833 0
DWIDTH 12 0
BBX 11 10 0 0
BITMAP
0f80
3840
6320
6da0
cd20
d920
db40
5d80
2000
1f80
ENDCHAR
STARTCHAR A
ENCODING 65
SWIDTH 644 0
DWIDTH 9 0
BBX 10 10 -1 0
BITMAP
0c00
0c00
1600
1600
1600
2700
3f00
2300
4380
e7c0
ENDCHAR
STARTCHAR B
ENCODING 66
SWIDTH 683 0
DWIDTH 9 0
BBX 8 10 1 0
BITMAP
fc
66
66
66
7c
66
63
63
63
fe
ENDCHAR
STARTCHAR C
ENCODING 67
SWIDTH 689 0
DWIDTH 10 0
BBX 8 10 1 0
BITMAP
1e
63
41
c0
c0
c0
c0
41
63
3e
ENDCHAR
STARTCHAR D
ENCODING 68
SWIDTH 777 0
DWIDTH 11 0
BBX 9 10 1 0
BITMAP
fe00
6300
6180
6180
6180
6180
6180
6100
6300
fc00
ENDCHAR
STARTCHAR E
ENCODING 69
SWIDTH 629 0
DWIDTH 9 0
BBX 7 10 1 0
BITMAP
fe
62
60
64
7c
64
60
62
62
fe
ENDCHAR
STARTCHAR F
ENCODING 70
SWIDTH 593 0
DWIDTH 8 0
BBX 7 10 1 0
BITMAP
fe
66
62
60
64
7c
64
60
60
f0
ENDCHAR
STARTCHAR G
ENCODING 71
SWIDTH 726 0
DWIDTH 10 0
BBX 9 10 1 0
BITMAP
1e00
6300
4100
c000
c000
c780
c300
e300
6300
3e00
ENDCHAR
STARTCHAR H
ENCODING 72
SWIDTH 807 0
DWIDTH 11 0
BBX 10 10 1 0
BITMAP
f3c0
6180
6180
6180
7f80
6180
6180
6180
6180
f3c0
ENDCHAR
STARTCHAR I
ENCODING 73
SWIDTH 384 0
DWIDTH 5 0
BBX 4 10 1 0
BITMAP
f0
60
60
60
60
60
60
60
60
f0
ENDCHAR
STARTCHAR J
ENCODING 74
SWIDTH 386 0
DWIDTH 5 0
BBX 5 12 0 -2
BITMAP
78
30
30
30
30
30
30
30
30
30
60
80
ENDCHAR
STARTCHAR K
ENCODING 75
SWIDTH 707 0
DWIDTH 10 0
BBX 9 10 1 0
BITMAP
f780
6200
6400
6800
7800
7c00
6e00
6600
6700
f180
ENDCHAR
STARTCHAR L
ENCODING 76
SWIDTH 585 0
DWIDTH 8 0
BBX 7 10 1 0
BITMAP
f0
60
60
60
60
60
60
62
62
fe
ENDCHAR
STARTCHAR M
ENCODING 77
SWIDTH 918 0
DWIDTH 13 0
BBX 12 10 0 0
BITMAP
f0f0
70e0
78e0
5960
5960
5d60
4e60
4e60
4460
e4f0
ENDCHAR
STARTCHAR N
ENCODING 78
SWIDTH 739 0
DWIDTH 10 0
BBX 10 10 0 0
BITMAP
f1c0
7080
7880
5c80
4c80
4e80
4780
4380
4380
e180
ENDCHAR
STARTCHAR O
ENCODING 79
SWIDTH 768 0
DWIDTH 11 0
BBX 9 10 1 0
BITMAP
3e00
6300
4100
c180
c180
c180
c180
4100
6300
3e00
ENDCHAR
STARTCHAR P
ENCODING 80
SWIDTH 650 0
DWIDTH 9 0
BBX 7 10 1 0
BITMAP
fc
66
66
66
64
78
60
60
60
f0
ENDCHAR
STARTCHAR Q
ENCODING 81
SWIDTH 768 0
DWIDTH 11 0
BBX 9 13 1 -3
BITMAP
3e00
6300
4100
c180
c180
c180
c180
4100
6300
3e00
0e00
0700
0380
ENDCHAR
STARTCHAR R
ENCODING 82
SWIDTH 684 0
DWIDTH 9 0
BBX 8 10 1 0
BITMAP
fc
66
66
66
64
78
6c
66
66
f3
ENDCHAR
STARTCHAR S
ENCODING 83
SWIDTH 561 0
DWIDTH 8 0
BBX 6 10 1 0
BITMAP
38
cc
c4
e0
70
3c
0c
8c
c8
70
ENDCHAR
STARTCHAR T
ENCODING 84
SWIDTH 624 0
DWIDTH 9 0
BBX 8 10 0 0
BITMAP
ff
99
99
18
18
18
18
18
18
3c
ENDCHAR
STARTCHAR U
ENCODING 85
SWIDTH 786 0
DWIDTH 11 0
BBX 9 10 1 0
BITMAP
f780
6300
6300
6300
6300
6300
6300
6300
2200
1c00
ENDCHAR
STARTCHAR V
ENCODING 86
SWIDTH 645 0
DWIDTH 9 0
BBX 10 10 0 0
BITMAP
f1c0
6080
3100
3100
3100
1a00
1a00
1a00
0c00
0c00
ENDCHAR
STARTCHAR W
ENCODING 87
SWIDTH 933 0
DWIDTH 13 0
BBX 13 10 0 0
BITMAP
f038
6310
6310
6310
35a0
35a0
35a0
35a0
18c0
18c0
ENDCHAR
STARTCHAR X
ENCODING 88
SWIDTH 634 0
DWIDTH 9 0
BBX 10 10 0 0
BITMAP
f380
6100
3200
3c00
1c00
1e00
3600
2700
6380
f7c0
ENDCHAR
STARTCHAR Y
ENCODING 89
SWIDTH 617 0
DWIDTH 9 0
BBX 9 10 0 0
BITMAP
f780
6100
6200
3600
3400
1800
1800
1800
1800
3e00
ENDCHAR
STARTCHAR Z
ENCODING 90
SWIDTH 614 0
DWIDTH 9 0
BBX 9 10 0 0
BITMAP
7f80
6380
4700
0e00
0e00
1c00
3800
7080
7080
ff80
ENDCHAR
STARTCHAR bracketleft
ENCODING 91
SWIDTH 335 0
DWIDTH 5 0
BBX 2 12 2 -2
BITMAP
c0
80
80
80
80
80
80
80
80
80
80
c0
ENDCHAR
STARTCHAR backslash
ENCODING 92
SWIDTH 379 0
DWIDTH 5 0
BBX 4 10 1 0
BITMAP
80
c0
40
40
40
20
20
20
30
10
ENDCHAR
STARTCHAR bracketright
ENCODING 93
SWIDTH 335 0
DWIDTH 5 0
BBX 2 12 1 -2
BITMAP
c0
40
40
40
40
40
40
40
40
40
40
c0
ENDCHAR
STARTCHAR asciicircum
ENCODING 94
SWIDTH 600 0
DWIDTH 8 0
BBX 7 7 1 2
BITMAP
10
38
28
6c
44
44
c6
ENDCHAR
STARTCHAR underscore
ENCODING 95
SWIDTH 500 0
DWIDTH 7 0
BBX 7 1 0 -2
BITMAP
fe
ENDCHAR
STARTCHAR grave
ENCODING 96
SWIDTH 430 0
DWIDTH 6 0
BBX 4 3 0 7
BITMAP
c0
60
10
ENDCHAR
STARTCHAR a
ENCODING 97
SWIDTH 544 0
DWIDTH 8 0
BBX 7 7 1 0
BITMAP
78
cc
0c
7c
cc
cc
7e
ENDCHAR
STARTCHAR b
ENCODING 98
SWIDTH 605 0
DWIDTH 8 0
BBX 8 10 0 0
BITMAP
20
e0
60
7e
63
63
63
63
62
5c
ENDCHAR
STARTCHAR c
ENCODING 99
SWIDTH 494 0
DWIDTH 7 0
BBX 6 7 1 0
BITMAP
38
4c
c8
c0
c0
c4
78
ENDCHAR
STARTCHAR d
ENCODING 100
SWIDTH 605 0
DWIDTH 8 0
BBX 7 10 1 0
BITMAP
04
1c
0c
3c
4c
cc
cc
cc
cc
7e
ENDCHAR
STARTCHAR e
ENCODING 101
SWIDTH 519 0
DWIDTH 7 0
BBX 6 7 1 0
BITMAP
38
4c
cc
fc
c0
c4
78
ENDCHAR
STARTCHAR f
ENCODING 102
SWIDTH 342 0
DWIDTH 5 0
BBX 5 10 0 0
BITMAP
38
68
60
f0
60
60
60
60
60
f0
ENDCHAR
STARTCHAR g
ENCODING 103
SWIDTH 533 0
DWIDTH 7 0
BBX 8 10 0 -3
BITMAP
3f
66
66
26
7c
7c
3f
c3
c2
7c
ENDCHAR
STARTCHAR h
ENCODING 104
SWIDTH 631 0
DWIDTH 9 0
BBX 9 10 0 0
BITMAP
2000
e000
6000
7e00
6300
6300
6300
6300
6300
f780
ENDCHAR
STARTCHAR i
ENCODING 105
SWIDTH 316 0
DWIDTH 4 0
BBX 4 10 0 0
BITMAP
60
60
00
20
e0
60
60
60
60
f0
ENDCHAR
STARTCHAR j
ENCODING 106
SWIDTH 316 0
DWIDTH 4 0
BBX 4 13 0 -3
BITMAP
30
70
00
20
e0
60
60
60
60
60
60
40
80
ENDCHAR
STARTCHAR k
ENCODING 107
SWIDTH 582 0
DWIDTH 8 0
BBX 8 10 0 0
BITMAP
20
e0
60
67
6c
78
78
7c
6e
e7
ENDCHAR
STARTCHAR l
ENCODING 108
SWIDTH 309 0
DWIDTH 4 0
BBX 4 10 0 0
BITMAP
20
e0
60
60
60
60
60
60
60
f0
ENDCHAR
STARTCHAR m
ENCODING 109
SWIDTH 948 0
DWIDTH 13 0
BBX 12 7 0 0
BITMAP
3dc0
e660
6660
6660
6660
6660
f770
ENDCHAR
STARTCHAR n
ENCODING 110
SWIDTH 638 0
DWIDTH 9 0
BBX 9 7 0 0
BITMAP
3e00
e300
6300
6300
6300
6300
f780
ENDCHAR
STARTCHAR o
ENCODING 111
SWIDTH 585 0
DWIDTH 8 0
BBX 7 7 1 0
BITMAP
38
44
c6
c6
c6
44
38
ENDCHAR
STARTCHAR p
ENCODING 112
SWIDTH 615 0
DWIDTH 9 0
BBX 8 10 0 -3
BITMAP
2e
f3
63
63
63
62
7c
60
60
f0
ENDCHAR
STARTCHAR q
ENCODING 113
SWIDTH 597 0
DWIDTH 8 0
BBX 7 10 1 -3
BITMAP
34
4c
cc
cc
cc
cc
7c
0c
0c
1e
ENDCHAR
STARTCHAR r
ENCODING 114
SWIDTH 440 0
DWIDTH 6 0
BBX 6 7 0 0
BITMAP
6c
fc
60
60
60
60
f0
ENDCHAR
STARTCHAR s
ENCODING 115
SWIDTH 446 0
DWIDTH 6 0
BBX 5 7 1 0
BITMAP
70
c8
e0
70
38
98
70
ENDCHAR
STARTCHAR t
ENCODING 116
SWIDTH 370 0
DWIDTH 5 0
BBX 5 9 0 0
BITMAP
20
60
f0
60
60
60
60
60
38
ENDCHAR
STARTCHAR u
ENCODING 117
SWIDTH 629 0
DWIDTH 9 0
BBX 9 7 0 0
BITMAP
2300
e700
6300
6300
6300
6300
3f80
ENDCHAR
STARTCHAR v
ENCODING 118
SWIDTH 520 0
DWIDTH 7 0
BBX 8 7 0 0
BITMAP
f7
62
74
34
34
18
18
ENDCHAR
STARTCHAR w
ENCODING 119
SWIDTH 774 0
DWIDTH 11 0
BBX 11 7 0 0
BITMAP
f6e0
6640
6640
2b40
3b80
3b80
1100
ENDCHAR
STARTCHAR x
ENCODING 120
SWIDTH 522 0
DWIDTH 7 0
BBX 8 7 0 0
BITMAP
f6
7c
38
18
2c
4e
ef
ENDCHAR
STARTCHAR y
ENCODING 121
SWIDTH 524 0
DWIDTH 7 0
BBX 8 10 0 -3
BITMAP
f7
62
66
34
34
18
18
10
50
60
ENDCHAR
STARTCHAR z
ENCODING 122
SWIDTH 483 0
DWIDTH 7 0
BBX 8 7 -1 0
BITMAP
7e
4e
5c
18
39
72
fe
ENDCHAR
STARTCHAR braceleft
ENCODING 123
SWIDTH 365 0
DWIDTH 5 0
BBX 3 12 1 -2
BITMAP
60
40
40
40
40
c0
40
40
40
40
40
20
ENDCHAR
STARTCHAR bar
ENCODING 124
SWIDTH 284 0
DWIDTH 4 0
BBX 1 10 1 0
BITMAP
80
80
80
80
80
80
80
80
80
80
ENDCHAR
STARTCHAR braceright
ENCODING 125
SWIDTH 365 0
DWIDTH 5 0
BBX 3 12 1 -2
BITMAP
80
40
40
40
40
60
40
40
40
40
40
80
ENDCHAR
STARTCHAR asciitilde
ENCODING 126
SWIDTH 600 0
DWIDTH 8 0
BBX 7 3 1 2
BITMAP
22
7c
88
ENDCHAR
STARTCHAR nobreakspace
ENCODING 160
SWIDTH 210 0
DWIDTH 3 0
BBX 0 0 0 0
BITMAP
ENDCHAR
STARTCHAR Aogonek
ENCODING 161
SWIDTH 644 0
DWIDTH 9 0
BBX 10 14 -1 -4
BITMAP
0c00
0c00
1600
1600
1600
2700
3f00
2300
4380
e7c0
0800
1000
1000
1c00
ENDCHAR
STARTCHAR breve
ENCODING 162
SWIDTH 430 0
DWIDTH 6 0
BBX 4 2 1 8
BITMAP
90
60
ENDCHAR
STARTCHAR Lstroke
ENCODING 163
SWIDTH 591 0
DWIDTH 8 0
BBX 7 10 1 0
BITMAP
f0
60
60
68
70
60
e0
62
62
fe
ENDCHAR
STARTCHAR currency
ENCODING 164
SWIDTH 560 0
DWIDTH 8 0
BBX 6 7 1 1
BITMAP
fc
cc
84
84
84
cc
fc
ENDCHAR
STARTCHAR Lcaron
ENCODING 165
SWIDTH 585 0
DWIDTH 8 0
BBX 7 11 1 0
BITMAP
06
f6
62
64
60
60
60
60
62
62
fe
ENDCHAR
STARTCHAR Sacute
ENCODING 166
SWIDTH 561 0
DWIDTH 8 0
BBX 6 14 1 0
BITMAP
0c
18
20
00
38
cc
c4
e0
70
3c
0c
8c
c8
70
ENDCHAR
STARTCHAR section
ENCODING 167
SWIDTH 566 0
DWIDTH 8 0
BBX 7 12 0 -2
BITMAP
18
2c
20
78
bc
8e
e6
72
1a
04
64
38
ENDCHAR
STARTCHAR diaeresis
ENCODING 168
SWIDTH 430 0
DWIDTH 6 0
BBX 6 2 0 8
BITMAP
cc
cc
ENDCHAR
STARTCHAR Scaron
ENCODING 169
SWIDTH 561 0
DWIDTH 8 0
BBX 6 14 1 0
BITMAP
88
70
20
00
38
cc
c4
e0
70
3c
0c
8c
c8
70
ENDCHAR
STARTCHAR Scedilla
ENCODING 170
SWIDTH 561 0
DWIDTH 8 0
BBX 6 14 1 -4
BITMAP
38
cc
c4
e0
70
3c
0c
8c
c8
70
20
30
10
30
ENDCHAR
STARTCHAR Tcaron
ENCODING 171
SWIDTH 624 0
DWIDTH 9 0
BBX 8 14 0 0
BITMAP
44
38
10
00
ff
99
99
18
18
18
18
18
18
3c
ENDCHAR
STARTCHAR Zacute
ENCODING 172
SWIDTH 614 0
DWIDTH 9 0
BBX 9 14 0 0
BITMAP
0300
0600
0800
0000
7f80
6380
4700
0e00
0e00
1c00
3800
7080
7080
ff80
ENDCHAR
STARTCHAR hyphen
ENCODING 173
SWIDTH 392 0
DWIDTH 5 0
BBX 4 1 1 3
BITMAP
f0
ENDCHAR
STARTCHAR Zcaron
ENCODING 174
SWIDTH 614 0
DWIDTH 9 0
BBX 9 14 0 0
BITMAP
2200
1c00
0800
0000
7f80
6380
4700
0e00
0e00
1c00
3800
7080
7080
ff80
ENDCHAR
STARTCHAR Zabovedot
ENCODING 175
SWIDTH 614 0
DWIDTH 9 0
BBX 9 13 0 0
BITMAP
0c00
0c00
0000
7f80
6380
4700
0e00
0e00
1c00
3800
7080
7080
ff80
ENDCHAR
STARTCHAR degree
ENCODING 176
SWIDTH 396 0
DWIDTH 5 0
BBX 4 4 1 5
BITMAP
60
90
90
60
ENDCHAR
STARTCHAR aogonek
ENCODING 177
SWIDTH 544 0
DWIDTH 8 0
BBX 7 11 1 -4
BITMAP
78
cc
0c
7c
cc
cc
7e
10
20
20
38
ENDCHAR
STARTCHAR ogonek
ENCODING 178
SWIDTH 430 0
DWIDTH 6 0
BBX 3 4 2 -4
BITMAP
40
80
80
e0
ENDCHAR
STARTCHAR lstroke
ENCODING 179
SWIDTH 321 0
DWIDTH 4 0
BBX 4 10 0 0
BITMAP
20
e0
60
70
60
e0
e0
60
60
f0
ENDCHAR
STARTCHAR acute
ENCODING 180
SWIDTH 430 0
DWIDTH 6 0
BBX 4 3 2 7
BITMAP
30
60
80
ENDCHAR
STARTCHAR lcaron
ENCODING 181
SWIDTH 432 0
DWIDTH 6 0
BBX 6 11 0 0
BITMAP
0c
2c
e4
68
60
60
60
60
60
60
f0
ENDCHAR
STARTCHAR sacute
ENCODING 182
SWIDTH 446 0
DWIDTH 6 0
BBX 6 11 1 0
BITMAP
0c
18
20
00
70
c8
e0
70
38
98
70
ENDCHAR
STARTCHAR caron
ENCODING 183
SWIDTH 430 0
DWIDTH 6 0
BBX 5 3 0 7
BITMAP
88
70
20
ENDCHAR
STARTCHAR cedilla
ENCODING 184
SWIDTH 430 0
DWIDTH 6 0
BBX 2 4 2 -4
BITMAP
80
c0
40
c0
ENDCHAR
STARTCHAR scaron
ENCODING 185
SWIDTH 446 0
DWIDTH 6 0
BBX 5 11 1 0
BITMAP
88
70
20
00
70
c8
e0
70
38
98
70
ENDCHAR
STARTCHAR scedilla
ENCODING 186
SWIDTH 446 0
DWIDTH 6 0
BBX 5 11 1 -4
BITMAP
70
c8
e0
70
38
98
70
20
30
10
30
ENDCHAR
STARTCHAR tcaron
ENCODING 187
SWIDTH 432 0
DWIDTH 6 0
BBX 6 12 0 0
BITMAP
0c
0c
04
28
60
f0
60
60
60
60
60
38
ENDCHAR
STARTCHAR zacute
ENCODING 188
SWIDTH 483 0
DWIDTH 7 0
BBX 8 11 -1 0
BITMAP
06
0c
10
00
7e
4e
5c
18
39
72
fe
ENDCHAR
STARTCHAR doubleacute
ENCODING 189
SWIDTH 430 0
DWIDTH 6 0
BBX 5 3 1 7
BITMAP
48
50
90
ENDCHAR
STARTCHAR zcaron
ENCODING 190
SWIDTH 483 0
DWIDTH 7 0
BBX 8 11 -1 0
BITMAP
44
38
10
00
7e
4e
5c
18
39
72
fe
ENDCHAR
STARTCHAR zabovedot
ENCODING 191
SWIDTH 483 0
DWIDTH 7 0
BBX 8 10 -1 0
BITMAP
18
18
00
7e
4e
5c
18
39
72
fe
ENDCHAR
STARTCHAR Racute
ENCODING 192
SWIDTH 684 0
DWIDTH 9 0
BBX 8 14 1 0
BITMAP
06
0c
10
00
fc
66
66
66
64
78
6c
66
66
f3
ENDCHAR
STARTCHAR Aacute
ENCODING 193
SWIDTH 644 0
DWIDTH 9 0
BBX 10 13 -1 0
BITMAP
0300
0e00
0000
0c00
0c00
1600
1600
1600
2700
3f00
2300
4380
e7c0
ENDCHAR
STARTCHAR Acircumflex
ENCODING 194
SWIDTH 644 0
DWIDTH 9 0
BBX 10 12 -1 0
BITMAP
1e00
2100
0c00
0c00
1600
1600
1600
2700
3f00
2300
4380
e7c0
ENDCHAR
STARTCHAR Abreve
ENCODING 195
SWIDTH 644 0
DWIDTH 9 0
BBX 10 13 -1 0
BITMAP
1200
0c00
0000
0c00
0c00
1600
1600
1600
2700
3f00
2300
4380
e7c0
ENDCHAR
STARTCHAR Adiaeresis
ENCODING 196
SWIDTH 644 0
DWIDTH 9 0
BBX 9 12 0 0
BITMAP
3600
3200
0400
1c00
1c00
2e00
2600
2600
3e00
4300
4300
e780
ENDCHAR
STARTCHAR Lacute
ENCODING 197
SWIDTH 585 0
DWIDTH 8 0
BBX 7 14 1 0
BITMAP
18
30
40
00
f0
60
60
60
60
60
60
62
62
fe
ENDCHAR
STARTCHAR Cacute
ENCODING 198
SWIDTH 689 0
DWIDTH 10 0
BBX 8 14 1 0
BITMAP
03
06
08
00
1e
63
41
c0
c0
c0
c0
41
63
3e
ENDCHAR
STARTCHAR Ccedilla
ENCODING 199
SWIDTH 689 0
DWIDTH 10 0
BBX 8 14 1 -4
BITMAP
1e
63
41
c0
c0
c0
c0
41
63
3e
10
1c
0c
18
ENDCHAR
STARTCHAR Ccaron
ENCODING 200
SWIDTH 689 0
DWIDTH 10 0
BBX 8 14 1 0
BITMAP
22
1c
08
00
1e
63
41
c0
c0
c0
c0
41
63
3e
ENDCHAR
STARTCHAR Eacute
ENCODING 201
SWIDTH 629 0
DWIDTH 9 0
BBX 7 13 1 0
BITMAP
04
3c
00
fe
62
60
64
7c
64
60
62
62
fe
ENDCHAR
STARTCHAR Eogonek
ENCODING 202
SWIDTH 629 0
DWIDTH 9 0
BBX 7 14 1 -4
BITMAP
fe
62
60
64
7c
64
60
62
62
fe
10
20
20
38
ENDCHAR
STARTCHAR Ediaeresis
ENCODING 203
SWIDTH 629 0
DWIDTH 9 0
BBX 7 12 1 0
BITMAP
6c
6c
fe
62
60
64
7c
64
60
62
62
fe
ENDCHAR
STARTCHAR Ecaron
ENCODING 204
SWIDTH 629 0
DWIDTH 9 0
BBX 7 14 1 0
BITMAP
44
38
10
00
fe
62
60
64
7c
64
60
62
62
fe
ENDCHAR
STARTCHAR Iacute
ENCODING 205
SWIDTH 384 0
DWIDTH 5 0
BBX 4 13 1 0
BITMAP
10
70
00
f0
60
60
60
60
60
60
60
60
f0
ENDCHAR
STARTCHAR Icircumflex
ENCODING 206
SWIDTH 384 0
DWIDTH 5 0
BBX 4 12 1 0
BITMAP
f0
00
f0
60
60
60
60
60
60
60
60
f0
ENDCHAR
STARTCHAR Dcaron
ENCODING 207
SWIDTH 777 0
DWIDTH 11 0
BBX 9 14 1 0
BITMAP
4400
3800
1000
0000
fe00
6300
6180
6180
6180
6180
6180
6100
6300
fc00
ENDCHAR
STARTCHAR Dstroke
ENCODING 208
SWIDTH 783 0
DWIDTH 11 0
BBX 9 10 1 0
BITMAP
fe00
6300
6180
6180
f980
6180
6180
6100
6300
fc00
ENDCHAR
STARTCHAR Nacute
ENCODING 209
SWIDTH 739 0
DWIDTH 10 0
BBX 10 14 0 0
BITMAP
0300
0600
0800
0000
f1c0
7080
7880
5c80
4c80
4e80
4780
4380
4380
e180
ENDCHAR
STARTCHAR Ncaron
ENCODING 210
SWIDTH 739 0
DWIDTH 10 0
BBX 10 14 0 0
BITMAP
2200
1c00
0800
0000
f1c0
7080
7880
5c80
4c80
4e80
4780
4380
4380
e180
ENDCHAR
STARTCHAR Oacute
ENCODING 211
SWIDTH 768 0
DWIDTH 11 0
BBX 9 13 1 0
BITMAP
0200
1e00
0000
3e00
6300
4100
c180
c180
c180
c180
4100
6300
3e00
ENDCHAR
STARTCHAR Ocircumflex
ENCODING 212
SWIDTH 768 0
DWIDTH 11 0
BBX 9 12 1 0
BITMAP
3e00
0000
3e00
6300
4100
c180
c180
c180
c180
4100
6300
3e00
ENDCHAR
STARTCHAR Odoubleacute
ENCODING 213
SWIDTH 768 0
DWIDTH 11 0
BBX 9 14 1 0
BITMAP
0900
0a00
1200
0000
3e00
6300
4100
c180
c180
c180
c180
4100
6300
3e00
ENDCHAR
STARTCHAR Odiaeresis
ENCODING 214
SWIDTH 768 0
DWIDTH 11 0
BBX 9 12 1 0
BITMAP
3600
3600
3e00
6300
4100
c180
c180
c180
c180
4100
6300
3e00
ENDCHAR
STARTCHAR multiply
ENCODING 215
SWIDTH 600 0
DWIDTH 8 0
BBX 6 6 1 0
BITMAP
84
48
30
30
48
84
ENDCHAR
STARTCHAR Rcaron
ENCODING 216
SWIDTH 684 0
DWIDTH 9 0
BBX 8 14 1 0
BITMAP
44
38
10
00
fc
66
66
66
64
78
6c
66
66
f3
ENDCHAR
STARTCHAR Uring
ENCODING 217
SWIDTH 786 0
DWIDTH 11 0
BBX 9 15 1 0
BITMAP
0c00
1200
1200
0c00
0000
f780
6300
6300
6300
6300
6300
6300
6300
2200
1c00
ENDCHAR
STARTCHAR Uacute
ENCODING 218
SWIDTH 786 0
DWIDTH 11 0
BBX 9 13 1 0
BITMAP
0200
1e00
0000
f780
6300
6300
6300
6300
6300
6300
6300
2200
1c00
ENDCHAR
STARTCHAR Udoubleacute
ENCODING 219
SWIDTH 786 0
DWIDTH 11 0
BBX 9 14 1 0
BITMAP
0900
0a00
1200
0000
f780
6300
6300
6300
6300
6300
6300
6300
2200
1c00
ENDCHAR
STARTCHAR Udiaeresis
ENCODING 220
SWIDTH 786 0
DWIDTH 11 0
BBX 9 12 1 0
BITMAP
3600
3600
f780
6300
6300
6300
6300
6300
6300
6300
2200
1c00
ENDCHAR
STARTCHAR Yacute
ENCODING 221
SWIDTH 617 0
DWIDTH 9 0
BBX 9 13 0 0
BITMAP
0600
1e00
0000
f780
6100
6200
3600
3400
1800
1800
1800
1800
3e00
ENDCHAR
STARTCHAR Tcedilla
ENCODING 222
SWIDTH 624 0
DWIDTH 9 0
BBX 8 14 0 -4
BITMAP
ff
99
99
18
18
18
18
18
18
3c
10
18
08
18
ENDCHAR
STARTCHAR ssharp
ENCODING 223
SWIDTH 662 0
DWIDTH 9 0
BBX 9 10 0 0
BITMAP
1e00
2300
6300
6c00
6c00
6f00
6780
6180
6d80
e700
ENDCHAR
STARTCHAR racute
ENCODING 224
SWIDTH 440 0
DWIDTH 6 0
BBX 6 11 0 0
BITMAP
0c
18
20
00
6c
fc
60
60
60
60
f0
ENDCHAR
STARTCHAR aacute
ENCODING 225
SWIDTH 544 0
DWIDTH 8 0
BBX 7 10 1 0
BITMAP
0c
38
00
78
cc
0c
7c
cc
cc
7e
ENDCHAR
STARTCHAR acircumflex
ENCODING 226
SWIDTH 544 0
DWIDTH 8 0
BBX 7 11 1 0
BITMAP
10
38
48
00
78
cc
0c
7c
cc
cc
7e
ENDCHAR
STARTCHAR abreve
ENCODING 227
SWIDTH 544 0
DWIDTH 8 0
BBX 7 10 1 0
BITMAP
48
30
00
78
cc
0c
7c
cc
cc
7e
ENDCHAR
STARTCHAR adiaeresis
ENCODING 228
SWIDTH 544 0
DWIDTH 8 0
BBX 7 10 1 0
BITMAP
cc
cc
00
78
cc
0c
7c
cc
cc
7e
ENDCHAR
STARTCHAR lacute
ENCODING 229
SWIDTH 309 0
DWIDTH 4 0
BBX 5 14 0 0
BITMAP
18
30
40
00
20
e0
60
60
60
60
60
60
60
f0
ENDCHAR
STARTCHAR cacute
ENCODING 230
SWIDTH 494 0
DWIDTH 7 0
BBX 7 11 1 0
BITMAP
06
0c
10
00
38
4c
c8
c0
c0
c4
78
ENDCHAR
STARTCHAR ccedilla
ENCODING 231
SWIDTH 494 0
DWIDTH 7 0
BBX 6 11 1 -4
BITMAP
38
48
c8
c0
c0
ec
70
20
30
10
30
ENDCHAR
STARTCHAR ccaron
ENCODING 232
SWIDTH 494 0
DWIDTH 7 0
BBX 6 11 1 0
BITMAP
44
38
10
00
38
4c
c8
c0
c0
c4
78
ENDCHAR
STARTCHAR eacute
ENCODING 233
SWIDTH 519 0
DWIDTH 7 0
BBX 6 10 1 0
BITMAP
08
38
00
38
4c
cc
fc
c0
c4
78
ENDCHAR
STARTCHAR eogonek
ENCODING 234
SWIDTH 519 0
DWIDTH 7 0
BBX 6 11 1 -4
BITMAP
38
4c
cc
fc
c0
c4
78
20
40
40
70
ENDCHAR
STARTCHAR ediaeresis
ENCODING 235
SWIDTH 519 0
DWIDTH 7 0
BBX 6 10 1 0
BITMAP
d8
d8
00
38
4c
cc
fc
c0
cc
78
ENDCHAR
STARTCHAR ecaron
ENCODING 236
SWIDTH 519 0
DWIDTH 7 0
BBX 6 11 1 0
BITMAP
44
38
10
00
38
4c
cc
fc
c0
c4
78
ENDCHAR
STARTCHAR iacute
ENCODING 237
SWIDTH 316 0
DWIDTH 4 0
BBX 4 10 0 0
BITMAP
30
60
40
00
e0
60
60
60
60
f0
ENDCHAR
STARTCHAR icircumflex
ENCODING 238
SWIDTH 316 0
DWIDTH 4 0
BBX 6 11 -1 0
BITMAP
20
30
48
84
10
70
30
30
30
30
78
ENDCHAR
STARTCHAR dcaron
ENCODING 239
SWIDTH 720 0
DWIDTH 10 0
BBX 9 11 1 0
BITMAP
0180
0580
1c80
0d00
3c00
4c00
cc00
cc00
cc00
cc00
7e00
ENDCHAR
STARTCHAR dstroke
ENCODING 240
SWIDTH 648 0
DWIDTH 9 0
BBX 8 10 1 0
BITMAP
04
0c
ff
3c
4c
cc
cc
cc
cc
7e
ENDCHAR
STARTCHAR nacute
ENCODING 241
SWIDTH 638 0
DWIDTH 9 0
BBX 9 11 0 0
BITMAP
0600
0c00
1000
0000
3e00
e300
6300
6300
6300
6300
f780
ENDCHAR
STARTCHAR ncaron
ENCODING 242
SWIDTH 638 0
DWIDTH 9 0
BBX 9 11 0 0
BITMAP
4400
3800
1000
0000
3e00
e300
6300
6300
6300
6300
f780
ENDCHAR
STARTCHAR oacute
ENCODING 243
SWIDTH 585 0
DWIDTH 8 0
BBX 7 10 1 0
BITMAP
0c
38
00
38
44
c6
c6
c6
44
38
ENDCHAR
STARTCHAR ocircumflex
ENCODING 244
SWIDTH 585 0
DWIDTH 8 0
BBX 7 11 1 0
BITMAP
10
38
6c
00
38
44
c6
c6
c6
44
38
ENDCHAR
STARTCHAR odoubleacute
ENCODING 245
SWIDTH 585 0
DWIDTH 8 0
BBX 7 11 1 0
BITMAP
12
14
24
00
38
44
c6
c6
c6
44
38
ENDCHAR
STARTCHAR odiaeresis
ENCODING 246
SWIDTH 585 0
DWIDTH 8 0
BBX 7 10 1 0
BITMAP
cc
cc
00
38
44
c6
c6
c6
44
38
ENDCHAR
STARTCHAR division
ENCODING 247
SWIDTH 600 0
DWIDTH 8 0
BBX 6 7 1 0
BITMAP
30
30
00
fc
00
30
30
ENDCHAR
STARTCHAR rcaron
ENCODING 248
SWIDTH 440 0
DWIDTH 6 0
BBX 6 11 0 0
BITMAP
88
70
20
00
6c
fc
60
60
60
60
f0
ENDCHAR
STARTCHAR uring
ENCODING 249
SWIDTH 629 0
DWIDTH 9 0
BBX 9 12 0 0
BITMAP
1800
2400
2400
1800
0000
2300
e700
6300
6300
6300
6300
3f80
ENDCHAR
STARTCHAR uacute
ENCODING 250
SWIDTH 629 0
DWIDTH 9 0
BBX 9 10 0 0
BITMAP
0600
1c00
0000
2300
e700
6300
6300
6300
6300
3f80
ENDCHAR
STARTCHAR udoubleacute
ENCODING 251
SWIDTH 629 0
DWIDTH 9 0
BBX 9 11 0 0
BITMAP
1200
1400
2400
0000
2300
e700
6300
6300
6300
6300
3f80
ENDCHAR
STARTCHAR udiaeresis
ENCODING 252
SWIDTH 629 0
DWIDTH 9 0
BBX 9 10 0 0
BITMAP
3600
3600
0000
2300
e700
6300
6300
6300
6300
3f80
ENDCHAR
STARTCHAR yacute
ENCODING 253
SWIDTH 524 0
DWIDTH 7 0
BBX 8 13 0 -3
BITMAP
06
1c
00
f7
62
66
34
34
18
18
10
50
60
ENDCHAR
STARTCHAR tcedilla
ENCODING 254
SWIDTH 370 0
DWIDTH 5 0
BBX 5 13 0 -4
BITMAP
20
60
f0
60
60
60
60
60
38
20
30
10
30
ENDCHAR
STARTCHAR abovedot
ENCODING 255
SWIDTH 430 0
DWIDTH 6 0
BBX 2 2 2 8
BITMAP
c0
c0
ENDCHAR
ENDFONT
